{"glyphs":{":":{"x_min":0,"x_max":256,"ha":256,"o":"m 151 415 q 99 415 99 466 q 99 500 118 525 q 136 550 176 550 q 198 550 212 537 q 225 524 225 497 q 225 466 206 440 q 188 415 151 415 z m 72 -14 q 20 -14 20 38 q 20 71 38 96 q 57 121 97 121 q 119 121 132 108 q 146 94 146 68 q 146 37 128 12 q 110 -14 72 -14 z"},"$":{"x_min":0,"x_max":551,"ha":551,"o":"m 166 -58 l 190 50 q 149 52 107 62 q 65 71 34 86 l 34 166 q 73 146 119 134 q 165 123 204 122 l 251 337 q 190 360 154 394 q 119 429 119 492 q 119 548 146 586 q 172 625 218 646 q 264 668 321 673 l 340 758 l 405 758 l 387 672 q 425 669 460 660 q 495 651 525 635 l 492 564 q 469 577 438 588 q 406 598 372 600 l 327 391 q 395 366 430 332 q 464 298 464 240 q 464 182 436 142 q 408 103 361 80 q 314 58 255 51 l 231 -58 z m 267 414 l 306 600 q 259 595 230 569 q 200 543 200 494 q 200 468 216 448 q 233 427 267 414 z m 270 125 q 316 131 348 158 q 380 186 380 233 q 380 259 364 279 q 348 299 311 314 z"},"?":{"x_min":0,"x_max":430,"ha":430,"o":"m 127 201 q 134 244 148 276 q 161 308 184 335 q 208 362 244 391 q 276 416 304 439 q 331 462 348 490 q 365 518 365 556 q 365 600 341 624 q 317 648 271 648 q 233 648 196 636 q 160 623 127 607 l 95 674 q 136 696 185 710 q 234 724 281 724 q 360 724 407 685 q 454 646 454 567 q 454 500 418 450 q 381 400 311 348 q 272 320 250 300 q 229 280 218 258 q 206 236 198 201 z m 129 -14 q 77 -14 77 38 q 77 71 96 96 q 114 121 154 121 q 176 121 190 108 q 203 94 203 68 q 203 37 184 12 q 166 -14 129 -14 z"},"<":{"x_min":0,"x_max":572,"ha":572,"o":"m 541 116 l 70 323 l 70 373 l 541 608 l 541 530 l 164 352 l 541 194 z"},"'":{"x_min":0,"x_max":220,"ha":220,"o":"m 109 456 l 144 714 l 240 714 l 165 456 z"},"=":{"x_min":0,"x_max":572,"ha":572,"o":"m 76 416 l 76 487 l 534 487 l 534 416 z m 76 217 l 76 288 l 534 288 l 534 217 z"},"a":{"x_min":0,"x_max":568,"ha":568,"o":"m 193 -10 q 128 -10 88 36 q 48 83 48 173 q 48 248 68 316 q 87 383 122 434 q 157 486 205 516 q 253 546 311 546 q 364 546 397 518 q 430 490 446 453 l 451 453 l 483 536 l 550 536 l 436 0 l 366 0 l 379 99 l 375 99 q 340 55 294 22 q 249 -10 193 -10 z m 222 63 q 258 63 294 90 q 330 117 358 162 q 387 208 403 266 q 410 294 413 319 q 416 344 416 365 q 416 412 390 442 q 364 472 320 472 q 281 472 248 448 q 215 423 190 380 q 165 338 152 284 q 138 230 138 171 q 138 117 160 90 q 182 63 222 63 z"},"L":{"x_min":0,"x_max":478,"ha":478,"o":"m 41 0 l 192 714 l 281 714 l 146 80 l 420 80 l 403 0 z"},"3":{"x_min":0,"x_max":551,"ha":551,"o":"m 210 -10 q 152 -10 106 0 q 61 11 22 29 l 22 114 q 57 94 108 79 q 159 64 211 64 q 291 64 334 102 q 377 141 377 206 q 377 268 340 300 q 302 332 233 332 l 169 332 l 184 405 l 249 405 q 299 405 342 422 q 384 440 410 474 q 435 508 435 555 q 435 601 406 626 q 378 650 333 650 q 287 650 248 634 q 210 618 173 592 l 132 654 q 173 684 224 704 q 274 724 341 724 q 431 724 478 680 q 525 636 525 566 q 525 490 476 437 q 427 384 340 368 l 340 364 q 397 354 434 314 q 470 274 470 210 q 470 154 443 104 q 416 53 359 22 q 302 -10 210 -10 z"},";":{"x_min":0,"x_max":256,"ha":256,"o":"m 151 415 q 99 415 99 466 q 99 500 118 525 q 136 550 176 550 q 198 550 212 537 q 225 524 225 497 q 225 466 206 440 q 188 415 151 415 z m -49 -129 q -23 -70 4 -3 q 31 64 50 116 l 146 116 l 150 105 q 125 52 89 -11 q 53 -74 18 -129 z"},"J":{"x_min":0,"x_max":273,"ha":273,"o":"m -80 -190 q -130 -190 -156 -178 l -153 -101 q -138 -106 -120 -108 q -102 -111 -82 -111 q -38 -111 -4 -84 q 30 -56 43 9 l 193 714 l 282 714 l 131 -1 q 109 -102 54 -146 q 0 -190 -80 -190 z"},"V":{"x_min":0,"x_max":552,"ha":552,"o":"m 169 0 l 92 714 l 180 714 l 225 262 q 230 221 232 179 q 235 137 234 101 l 236 101 q 251 137 270 176 q 289 216 313 263 l 545 714 l 644 714 l 264 0 z"},"\"":{"x_min":0,"x_max":392,"ha":392,"o":"m 281 456 l 316 714 l 412 714 l 337 456 z m 109 456 l 144 714 l 240 714 l 165 456 z"},"7":{"x_min":0,"x_max":551,"ha":551,"o":"m 81 0 l 454 636 l 107 636 l 123 714 l 562 714 l 549 644 l 176 0 z"},"S":{"x_min":0,"x_max":505,"ha":505,"o":"m 185 -10 q 133 -10 94 -2 q 54 6 19 22 l 19 110 q 49 94 90 81 q 132 68 186 68 q 231 68 269 82 q 307 96 330 125 q 353 154 353 200 q 353 240 326 268 q 300 297 235 334 q 197 356 168 381 q 138 406 122 438 q 105 470 105 517 q 105 583 137 630 q 169 676 222 700 q 276 724 340 724 q 396 724 438 713 q 481 702 519 682 l 485 606 q 459 620 420 632 q 381 645 340 645 q 278 645 239 613 q 200 581 200 523 q 200 492 211 472 q 222 452 245 435 q 268 418 302 398 q 345 372 378 347 q 410 322 428 289 q 447 256 447 207 q 447 100 376 45 q 304 -10 185 -10 z"},"}":{"x_min":0,"x_max":350,"ha":350,"o":"m -37 -158 l -37 -85 q 11 -85 38 -70 q 66 -55 77 -8 l 112 148 q 123 199 152 232 q 180 264 239 274 l 239 277 q 200 288 182 314 q 165 341 165 380 q 165 394 168 410 q 170 427 174 443 l 197 546 q 200 559 202 570 q 204 582 204 592 q 204 621 181 631 q 158 641 117 641 l 132 714 l 138 714 q 210 714 248 688 q 285 661 285 604 q 285 588 282 572 q 280 555 275 536 l 251 430 q 248 414 246 402 q 243 389 243 377 q 243 307 345 307 l 329 234 q 271 234 236 213 q 202 192 191 141 l 158 -16 q 146 -72 123 -103 q 100 -134 63 -146 q 26 -158 -30 -158 z"},"Z":{"x_min":0,"x_max":531,"ha":531,"o":"m -10 0 l 4 70 l 449 634 l 134 634 l 151 714 l 573 714 l 560 643 l 115 80 l 450 80 l 434 0 z"},"x":{"x_min":0,"x_max":483,"ha":483,"o":"m -37 0 l 195 276 l 79 536 l 168 536 l 251 338 l 408 536 l 510 536 l 287 272 l 410 0 l 321 0 l 230 208 l 65 0 z"},")":{"x_min":0,"x_max":290,"ha":290,"o":"m -77 -158 q -6 -80 48 10 q 103 101 134 204 q 165 306 165 422 q 165 508 151 580 q 137 652 110 714 l 178 714 q 212 652 230 578 q 249 505 249 422 q 249 244 186 104 q 122 -37 3 -158 z"},"&":{"x_min":0,"x_max":673,"ha":673,"o":"m 216 -10 q 135 -10 84 36 q 32 81 32 168 q 32 248 81 300 q 130 352 222 396 q 202 428 188 466 q 173 503 173 545 q 173 596 196 636 q 218 677 261 701 q 304 725 365 725 q 438 725 481 686 q 524 648 524 582 q 524 532 498 496 q 471 460 426 432 q 382 404 330 378 l 462 194 q 495 222 518 260 q 541 298 557 338 l 645 338 q 620 276 585 226 q 550 175 506 133 l 605 0 l 501 0 l 446 78 q 399 40 346 15 q 292 -10 216 -10 z m 295 433 q 326 449 360 468 q 393 488 416 514 q 439 540 439 575 q 439 610 419 632 q 399 654 361 654 q 312 654 284 625 q 257 596 257 545 q 257 486 295 433 z m 233 63 q 286 63 326 84 q 366 106 404 136 l 259 342 q 222 323 190 301 q 159 279 139 248 q 119 218 119 174 q 119 123 151 93 q 183 63 233 63 z"},"_":{"x_min":0,"x_max":395,"ha":395,"o":"m -92 -158 l -77 -90 l 320 -90 l 305 -158 z"},"v":{"x_min":0,"x_max":467,"ha":467,"o":"m 110 0 l 48 536 l 136 536 l 166 238 q 169 212 172 177 q 174 142 176 112 q 177 81 177 67 l 180 67 q 191 92 206 124 q 221 156 236 188 q 252 220 263 241 l 421 536 l 515 536 l 225 0 z"},"O":{"x_min":0,"x_max":721,"ha":721,"o":"m 337 -10 q 209 -10 140 64 q 72 139 72 267 q 72 359 96 442 q 121 525 168 588 q 215 652 282 688 q 349 725 433 725 q 554 725 622 650 q 690 574 690 444 q 690 351 668 269 q 645 187 600 124 q 556 62 490 26 q 424 -10 337 -10 z m 340 69 q 400 69 447 99 q 494 129 527 182 q 560 234 578 302 q 595 370 595 446 q 595 541 550 594 q 505 646 427 646 q 367 646 319 616 q 271 587 237 536 q 203 484 185 416 q 167 347 167 269 q 167 174 213 122 q 259 69 340 69 z"},"(":{"x_min":0,"x_max":290,"ha":290,"o":"m 112 -158 q 78 -97 59 -24 q 40 50 40 133 q 40 312 104 452 q 168 592 286 714 l 367 714 q 296 636 241 546 q 186 455 155 352 q 124 250 124 134 q 124 47 138 -24 q 153 -96 180 -158 z"},"C":{"x_min":0,"x_max":587,"ha":587,"o":"m 326 -10 q 207 -10 140 63 q 72 136 72 263 q 72 327 87 393 q 102 459 132 518 q 163 577 210 624 q 256 670 318 697 q 380 724 458 724 q 558 724 632 684 l 596 610 q 569 624 536 634 q 502 645 458 645 q 383 645 328 612 q 274 578 238 522 q 202 467 184 400 q 167 332 167 265 q 167 174 214 122 q 260 69 342 69 q 383 69 422 77 q 462 85 500 98 l 500 20 q 461 6 422 -2 q 382 -10 326 -10 z"},"W":{"x_min":0,"x_max":856,"ha":856,"o":"m 137 0 l 107 714 l 195 714 l 209 279 q 210 238 208 194 q 207 150 205 110 l 208 110 q 222 149 242 200 q 262 250 283 294 l 479 714 l 570 714 l 590 296 q 593 249 594 198 q 595 147 594 110 l 597 110 q 610 148 626 193 q 642 238 661 282 l 848 714 l 943 714 l 619 0 l 528 0 l 506 460 q 504 493 503 530 q 502 568 502 599 l 499 599 q 489 569 476 538 q 462 506 440 457 l 229 0 z"},"A":{"x_min":0,"x_max":562,"ha":562,"o":"m -57 0 l 331 714 l 425 714 l 513 0 l 425 0 l 398 222 l 157 222 l 41 0 z m 200 302 l 389 302 l 373 452 q 369 490 366 536 q 362 582 361 617 l 358 617 q 342 579 321 536 q 300 492 277 448 z"},"f":{"x_min":0,"x_max":318,"ha":318,"o":"m -48 -240 q -68 -240 -84 -237 q -99 -234 -112 -230 l -112 -156 q -98 -160 -85 -164 q -72 -167 -56 -167 q -20 -167 0 -138 q 20 -108 32 -53 l 142 469 l 49 469 l 56 506 l 156 539 l 167 587 q 182 656 206 694 q 230 733 265 749 q 300 765 349 765 q 374 765 400 760 q 426 754 443 746 l 420 679 q 406 684 389 688 q 372 693 353 693 q 314 693 291 671 q 268 649 255 587 l 243 536 l 358 536 l 345 469 l 230 469 l 118 -63 q 100 -146 62 -193 q 24 -240 -48 -240 z"},"Q":{"x_min":0,"x_max":721,"ha":721,"o":"m 461 -170 l 353 -9 q 348 -10 344 -10 q 341 -10 337 -10 q 209 -10 140 64 q 72 139 72 267 q 72 359 96 442 q 121 525 168 588 q 215 652 282 688 q 349 725 433 725 q 554 725 622 650 q 690 574 690 444 q 690 341 661 252 q 632 162 576 98 q 520 34 441 7 l 575 -170 z m 340 69 q 401 69 448 99 q 496 129 528 182 q 561 234 578 302 q 595 370 595 446 q 595 541 550 594 q 505 646 427 646 q 367 646 319 616 q 271 587 237 536 q 203 484 185 416 q 167 347 167 269 q 167 174 213 122 q 259 69 340 69 z"},"w":{"x_min":0,"x_max":723,"ha":723,"o":"m 79 0 l 57 536 l 143 536 l 151 250 q 152 195 150 150 q 149 106 147 77 l 151 77 q 158 98 170 126 q 181 155 194 184 q 206 212 216 233 l 357 536 l 452 536 l 469 249 q 470 212 471 164 q 472 115 470 77 l 474 77 q 487 115 507 166 q 527 218 551 273 l 668 536 l 761 536 l 513 0 l 407 0 l 392 290 q 390 330 390 367 q 391 404 391 451 l 387 451 q 374 414 360 382 q 347 351 323 300 l 183 0 z"},"-":{"x_min":0,"x_max":313,"ha":313,"o":"m 26 227 l 44 308 l 280 308 l 262 227 z"},"E":{"x_min":0,"x_max":514,"ha":514,"o":"m 41 0 l 192 714 l 554 714 l 537 635 l 264 635 l 217 412 l 472 412 l 457 334 l 201 334 l 146 79 l 420 79 l 403 0 z"},"s":{"x_min":0,"x_max":432,"ha":432,"o":"m 155 -10 q 106 -10 70 0 q 33 9 5 24 l 5 105 q 30 89 70 76 q 110 62 152 62 q 211 62 242 85 q 273 108 273 146 q 273 175 254 194 q 235 214 183 243 q 126 275 97 309 q 68 343 68 394 q 68 462 118 504 q 167 546 250 546 q 299 546 340 534 q 382 523 412 509 l 384 439 q 358 451 326 462 q 294 472 250 472 q 206 472 181 452 q 156 431 156 399 q 156 373 174 354 q 191 334 244 305 q 278 285 305 265 q 332 245 348 218 q 363 192 363 155 q 363 74 306 32 q 250 -10 155 -10 z"},">":{"x_min":0,"x_max":572,"ha":572,"o":"m 70 194 l 447 351 l 70 530 l 70 608 l 541 373 l 541 323 l 70 116 z"},"l":{"x_min":0,"x_max":258,"ha":258,"o":"m 27 0 l 189 760 l 277 760 l 115 0 z"},"8":{"x_min":0,"x_max":551,"ha":551,"o":"m 246 -10 q 177 -10 132 14 q 88 39 66 80 q 45 120 45 169 q 45 246 95 298 q 145 350 234 384 q 196 412 172 447 q 149 482 149 537 q 149 596 177 638 q 205 680 254 702 q 302 725 361 725 q 426 725 466 702 q 507 680 525 644 q 543 608 543 567 q 543 514 520 478 q 496 441 458 416 q 420 390 376 372 q 428 340 458 299 q 489 258 489 193 q 489 140 464 94 q 438 47 384 18 q 330 -10 246 -10 z m 315 412 q 383 438 418 472 q 454 505 454 558 q 454 601 427 626 q 400 651 354 651 q 301 651 268 620 q 236 590 236 537 q 236 492 258 463 q 280 434 315 412 z m 255 63 q 305 63 337 82 q 369 100 384 130 q 399 159 399 191 q 399 239 374 274 q 348 310 296 339 q 251 324 214 304 q 178 284 157 252 q 136 221 136 174 q 136 122 169 92 q 202 63 255 63 z"},"\\":{"x_min":0,"x_max":356,"ha":356,"o":"m 214 0 l 108 714 l 188 714 l 294 0 z"},"e":{"x_min":0,"x_max":499,"ha":499,"o":"m 242 -10 q 149 -10 98 44 q 48 99 48 192 q 48 256 66 318 q 85 381 120 432 q 155 484 204 515 q 254 546 316 546 q 392 546 430 513 q 469 480 469 421 q 469 368 436 326 q 404 283 335 258 q 266 232 156 232 l 139 232 q 138 223 138 213 q 137 203 137 195 q 137 134 166 98 q 196 63 258 63 q 296 63 330 74 q 364 84 404 104 l 404 29 q 366 12 330 1 q 293 -10 242 -10 z m 152 303 l 159 303 q 219 303 270 314 q 321 324 352 348 q 383 373 383 414 q 383 440 366 456 q 348 473 311 473 q 263 473 218 428 q 174 384 152 303 z"},"b":{"x_min":0,"x_max":579,"ha":579,"o":"m 269 -10 q 215 -10 182 18 q 148 45 132 82 l 127 82 l 94 0 l 28 0 l 189 760 l 277 760 l 239 580 q 232 546 224 513 q 215 480 209 459 q 203 438 202 436 l 206 436 q 242 480 284 512 q 327 545 383 545 q 449 545 490 499 q 530 453 530 363 q 530 290 512 223 q 494 156 460 104 q 426 51 378 20 q 330 -10 269 -10 z m 262 63 q 302 63 335 88 q 368 114 392 157 q 415 200 428 254 q 440 308 440 364 q 440 472 355 472 q 322 472 288 448 q 253 423 224 380 q 195 338 178 284 q 160 230 160 171 q 160 123 185 93 q 210 63 262 63 z"},"%":{"x_min":0,"x_max":799,"ha":799,"o":"m 195 276 q 140 276 110 313 q 80 350 80 421 q 80 450 85 489 q 90 528 102 569 q 115 610 136 646 q 158 681 191 702 q 224 724 270 724 q 327 724 357 688 q 387 653 387 587 q 387 560 382 520 q 376 481 363 438 q 350 396 328 359 q 305 322 272 299 q 240 276 195 276 z m 113 0 l 643 714 l 721 714 l 191 0 z m 202 342 q 228 342 248 362 q 267 381 280 412 q 293 442 300 475 q 308 508 312 537 q 315 566 315 581 q 315 622 302 640 q 289 659 264 659 q 238 659 219 641 q 200 623 187 595 q 174 567 166 534 q 159 502 156 472 q 152 442 152 422 q 152 342 202 342 z m 562 -10 q 507 -10 477 27 q 447 64 447 134 q 447 164 452 204 q 457 243 470 284 q 482 325 504 360 q 526 395 558 416 q 591 438 637 438 q 695 438 725 402 q 755 367 755 302 q 755 275 749 236 q 743 196 730 154 q 717 111 695 74 q 673 36 640 13 q 607 -10 562 -10 z m 569 56 q 595 56 614 76 q 634 95 647 126 q 660 156 668 190 q 675 223 678 252 q 682 280 682 295 q 682 336 669 354 q 656 373 631 373 q 605 373 586 355 q 567 337 554 309 q 542 281 534 248 q 527 216 524 186 q 520 156 520 136 q 520 56 569 56 z"},"m":{"x_min":0,"x_max":875,"ha":875,"o":"m 28 0 l 142 536 l 214 536 l 203 437 l 208 437 q 226 462 250 487 q 275 512 307 529 q 339 546 380 546 q 435 546 465 514 q 495 482 501 427 l 505 427 q 525 456 552 484 q 580 511 614 528 q 648 546 689 546 q 751 546 785 512 q 819 478 819 414 q 819 390 816 369 q 813 348 808 326 l 739 0 l 650 0 l 722 336 q 726 358 728 374 q 731 391 731 406 q 731 436 714 454 q 698 472 663 472 q 630 472 594 448 q 558 424 526 373 q 495 322 478 242 l 427 0 l 339 0 l 410 336 q 419 381 419 402 q 419 435 404 454 q 389 472 354 472 q 322 472 285 448 q 248 425 216 372 q 184 319 165 231 l 116 0 z"},"#":{"x_min":0,"x_max":646,"ha":646,"o":"m 97 0 l 156 209 l 30 209 l 36 275 l 175 275 l 223 437 l 89 437 l 95 502 l 241 502 l 301 714 l 373 714 l 312 502 l 456 502 l 518 714 l 586 714 l 526 502 l 654 502 l 647 437 l 506 437 l 459 275 l 597 275 l 591 209 l 440 209 l 380 0 l 308 0 l 371 209 l 227 209 l 166 0 z m 246 275 l 390 275 l 435 437 l 292 437 z"},",":{"x_min":0,"x_max":256,"ha":256,"o":"m -43 -129 q -17 -70 10 -3 q 37 64 56 116 l 152 116 l 156 105 q 131 52 95 -11 q 59 -74 24 -129 z"},"n":{"x_min":0,"x_max":579,"ha":579,"o":"m 24 -3 l 139 539 l 217 539 l 206 440 q 225 464 251 490 q 277 515 310 532 q 344 549 388 549 q 452 549 489 514 q 526 478 526 414 q 526 391 522 367 q 519 343 515 325 l 444 -3 l 350 -3 l 422 337 q 426 360 429 376 q 432 391 432 405 q 432 469 364 469 q 330 469 292 446 q 253 422 220 370 q 186 318 168 230 l 118 -3 z"},"h":{"x_min":0,"x_max":579,"ha":579,"o":"m 28 0 l 189 760 l 277 760 l 234 563 q 228 533 219 500 q 210 468 202 436 l 207 436 q 226 461 252 486 q 278 511 312 528 q 345 545 388 545 q 450 545 486 510 q 523 476 523 408 q 523 388 520 368 q 516 348 512 326 l 442 0 l 354 0 l 425 336 q 434 381 434 402 q 434 435 418 454 q 401 472 364 472 q 330 472 290 448 q 251 425 218 372 q 184 319 165 231 l 116 0 z"},"z":{"x_min":0,"x_max":445,"ha":445,"o":"m -15 0 l -3 60 l 330 470 l 100 470 l 114 536 l 439 536 l 425 465 l 98 66 l 353 66 l 340 0 z"},"B":{"x_min":0,"x_max":600,"ha":600,"o":"m 41 0 l 192 714 l 377 714 q 476 714 532 675 q 589 636 589 550 q 589 477 545 432 q 501 386 428 372 l 428 367 q 477 354 510 318 q 543 282 543 222 q 543 149 508 100 q 472 50 410 25 q 348 0 269 0 z m 217 410 l 334 410 q 378 410 415 424 q 452 438 474 466 q 496 495 496 539 q 496 586 466 612 q 436 637 366 637 l 265 637 z m 146 76 l 272 76 q 357 76 403 114 q 449 152 449 222 q 449 270 418 303 q 387 336 313 336 l 201 336 z"},"K":{"x_min":0,"x_max":562,"ha":562,"o":"m 41 0 l 192 714 l 281 714 l 207 367 l 269 433 l 543 714 l 651 714 l 341 400 l 510 0 l 412 0 l 273 346 l 190 285 l 130 0 z"},"R":{"x_min":0,"x_max":573,"ha":573,"o":"m 41 0 l 192 714 l 349 714 q 569 714 569 533 q 569 456 528 399 q 488 342 391 315 l 509 0 l 411 0 l 309 295 l 192 295 l 130 0 z m 208 371 l 286 371 q 386 371 432 414 q 477 458 477 527 q 477 588 442 612 q 408 636 341 636 l 265 636 z"},"T":{"x_min":0,"x_max":501,"ha":501,"o":"m 152 0 l 286 635 l 90 635 l 107 714 l 589 714 l 573 635 l 377 635 l 242 0 z"},"P":{"x_min":0,"x_max":567,"ha":567,"o":"m 41 0 l 192 714 l 353 714 q 468 714 518 662 q 567 611 567 528 q 567 407 487 343 q 407 279 253 279 l 189 279 l 130 0 z m 205 354 l 267 354 q 363 354 420 395 q 476 436 476 525 q 476 584 442 610 q 409 637 341 637 l 265 637 z"},"|":{"x_min":0,"x_max":551,"ha":551,"o":"m 260 -241 l 260 760 l 332 760 l 332 -241 z"},"t":{"x_min":0,"x_max":332,"ha":332,"o":"m 185 -10 q 131 -10 94 16 q 57 42 57 107 q 57 139 66 178 l 127 469 l 44 469 l 52 509 l 142 547 l 204 658 l 256 658 l 229 536 l 364 536 l 350 469 l 216 469 l 154 177 q 151 164 148 148 q 145 131 145 117 q 145 94 158 78 q 170 62 198 62 q 216 62 233 66 q 250 69 269 75 l 269 8 q 257 2 232 -4 q 207 -10 185 -10 z"},"M":{"x_min":0,"x_max":841,"ha":841,"o":"m 40 0 l 191 714 l 317 714 l 386 131 l 390 131 l 707 714 l 844 714 l 696 0 l 606 0 l 696 424 q 710 489 722 542 q 735 595 744 627 l 742 627 l 398 0 l 327 0 l 251 626 l 247 626 q 245 606 240 572 q 235 539 228 502 q 222 464 215 429 l 124 0 z"},"g":{"x_min":0,"x_max":579,"ha":579,"o":"m 186 -240 q 137 -240 96 -230 q 54 -221 25 -206 l 25 -125 q 51 -141 96 -154 q 140 -167 183 -167 q 245 -167 284 -137 q 324 -107 341 -37 l 350 1 q 354 22 360 44 q 366 67 370 83 q 375 99 375 99 l 371 99 q 336 55 293 22 q 250 -10 194 -10 q 129 -10 88 36 q 48 83 48 173 q 48 246 66 313 q 84 380 118 432 q 153 485 202 516 q 250 546 311 546 q 365 546 398 518 q 430 490 447 453 l 451 453 l 484 536 l 551 536 l 429 -31 q 405 -144 344 -192 q 282 -240 186 -240 z m 223 63 q 257 63 291 88 q 325 113 354 156 q 382 198 399 252 q 416 306 416 364 q 416 412 394 442 q 371 472 318 472 q 278 472 245 446 q 212 421 188 378 q 164 335 151 281 q 138 227 138 171 q 138 63 223 63 z"},"j":{"x_min":0,"x_max":258,"ha":258,"o":"m 212 625 q 192 625 178 638 q 165 650 165 672 q 165 698 180 717 q 196 736 224 736 q 269 736 269 691 q 269 660 251 642 q 233 625 212 625 z m -64 -240 q -101 -240 -126 -230 l -126 -156 q -114 -160 -99 -164 q -84 -167 -68 -167 q -7 -167 14 -69 l 142 536 l 229 536 l 99 -77 q 83 -152 46 -196 q 10 -240 -64 -240 z"},"i":{"x_min":0,"x_max":258,"ha":258,"o":"m 213 625 q 192 625 178 638 q 165 650 165 672 q 165 698 180 717 q 196 736 224 736 q 270 736 270 691 q 270 660 252 642 q 234 625 213 625 z m 28 0 l 142 536 l 230 536 l 116 0 z"},"y":{"x_min":0,"x_max":467,"ha":467,"o":"m -25 -240 q -49 -240 -64 -237 q -80 -234 -94 -230 l -94 -159 q -80 -163 -64 -166 q -48 -168 -30 -168 q 10 -168 39 -143 q 68 -118 94 -70 l 129 -8 l 48 536 l 136 536 l 171 271 q 176 238 178 200 q 181 162 182 128 q 184 93 184 72 l 187 72 q 194 88 208 120 q 221 152 237 186 q 253 220 265 242 l 421 536 l 515 536 l 175 -90 q 134 -165 90 -202 q 46 -240 -25 -240 z"},"@":{"x_min":0,"x_max":848,"ha":848,"o":"m 385 -91 q 284 -91 210 -51 q 135 -11 94 64 q 53 140 53 246 q 53 337 85 421 q 117 505 178 570 q 239 636 326 674 q 412 713 520 713 q 626 713 692 672 q 759 630 790 562 q 822 494 822 415 q 822 326 794 256 q 767 186 718 146 q 670 106 609 106 q 553 106 530 133 q 508 160 504 195 l 500 195 q 478 158 444 132 q 410 106 360 106 q 304 106 272 142 q 239 178 239 246 q 239 327 274 388 q 308 450 366 484 q 423 518 491 518 q 539 518 571 509 q 603 500 629 489 l 582 310 q 574 280 570 260 q 566 241 566 224 q 566 193 580 181 q 594 169 614 169 q 645 169 670 190 q 695 211 712 246 q 730 280 740 322 q 749 365 749 408 q 749 474 726 528 q 702 582 649 614 q 596 647 507 647 q 421 647 352 616 q 282 586 232 532 q 182 477 155 405 q 128 333 128 250 q 128 123 196 50 q 264 -24 396 -24 q 450 -24 504 -12 q 558 1 602 18 l 602 -47 q 550 -68 494 -80 q 438 -91 385 -91 z m 378 169 q 426 169 458 212 q 489 254 508 321 l 541 445 q 531 449 516 452 q 500 456 481 456 q 434 456 396 429 q 359 402 337 356 q 315 310 315 253 q 315 209 331 189 q 347 169 378 169 z"},".":{"x_min":0,"x_max":256,"ha":256,"o":"m 72 -14 q 20 -14 20 38 q 20 71 38 96 q 57 121 97 121 q 119 121 132 108 q 146 94 146 68 q 146 37 128 12 q 110 -14 72 -14 z"},"p":{"x_min":0,"x_max":579,"ha":579,"o":"m -22 -240 l 142 536 l 214 536 l 202 436 l 206 436 q 241 480 285 512 q 329 545 385 545 q 450 545 490 499 q 530 453 530 362 q 530 288 512 222 q 494 155 460 102 q 426 50 378 20 q 329 -10 269 -10 q 215 -10 182 18 q 149 45 132 82 l 127 82 q 126 66 122 38 q 118 9 114 -9 l 65 -240 z m 262 63 q 302 63 335 88 q 368 114 392 157 q 415 200 428 254 q 440 308 440 364 q 440 472 355 472 q 322 472 288 448 q 253 423 224 381 q 195 339 178 285 q 160 231 160 171 q 160 123 185 93 q 210 63 262 63 z"},"X":{"x_min":0,"x_max":527,"ha":527,"o":"m -52 0 l 239 378 l 112 714 l 202 714 l 299 441 l 511 714 l 609 714 l 339 374 l 474 0 l 380 0 l 278 309 l 46 0 z"},"*":{"x_min":0,"x_max":551,"ha":551,"o":"m 372 300 l 318 495 l 195 330 l 134 391 l 283 528 l 103 581 l 131 659 l 311 570 l 331 763 l 418 746 l 359 560 l 563 570 l 559 488 l 369 511 l 456 326 z"},"Y":{"x_min":0,"x_max":509,"ha":509,"o":"m 150 0 l 208 268 l 92 714 l 181 714 l 266 356 l 500 714 l 601 714 l 295 265 l 240 0 z"},"c":{"x_min":0,"x_max":453,"ha":453,"o":"m 247 -10 q 158 -10 103 40 q 48 90 48 190 q 48 262 68 326 q 87 391 124 440 q 160 489 212 518 q 264 546 328 546 q 363 546 398 539 q 432 532 461 520 l 436 447 q 416 456 388 464 q 361 472 329 472 q 272 472 229 434 q 186 395 162 331 q 138 267 138 191 q 138 130 169 96 q 200 63 256 63 q 291 63 322 72 q 354 82 385 96 l 385 22 q 357 8 322 -1 q 288 -10 247 -10 z"},"!":{"x_min":0,"x_max":261,"ha":261,"o":"m 77 201 l 168 714 l 275 714 l 148 201 z m 73 -14 q 20 -14 20 40 q 20 72 38 96 q 56 121 95 121 q 118 121 132 107 q 146 93 146 67 q 146 38 128 12 q 110 -14 73 -14 z"},"/":{"x_min":0,"x_max":356,"ha":356,"o":"m -46 0 l 351 714 l 441 714 l 45 0 z"},"[":{"x_min":0,"x_max":290,"ha":290,"o":"m -9 -158 l 177 714 l 370 714 l 354 642 l 244 642 l 90 -86 l 200 -86 l 184 -158 z"},"6":{"x_min":0,"x_max":551,"ha":551,"o":"m 251 -10 q 167 -10 115 44 q 63 97 63 209 q 63 278 79 357 q 95 436 129 508 q 163 580 216 632 q 259 676 318 700 q 377 724 454 724 q 508 724 546 713 l 528 637 q 512 642 492 646 q 471 649 444 649 q 349 649 276 583 q 204 517 169 366 l 173 366 q 202 404 244 426 q 286 449 338 449 q 412 449 456 402 q 500 355 500 269 q 500 219 485 170 q 470 120 440 80 q 409 39 362 14 q 315 -10 251 -10 z m 260 64 q 309 64 343 92 q 377 120 395 165 q 413 210 413 261 q 413 317 387 348 q 361 378 308 378 q 272 378 242 362 q 212 346 191 323 q 170 300 162 279 q 155 263 152 243 q 150 223 150 203 q 150 167 161 136 q 172 104 196 84 q 220 64 260 64 z"},"r":{"x_min":0,"x_max":398,"ha":398,"o":"m 28 0 l 142 536 l 214 536 l 203 437 l 208 437 q 229 464 252 489 q 275 514 304 530 q 333 546 371 546 q 385 546 400 544 q 416 543 429 539 l 410 460 q 383 466 359 466 q 309 466 270 433 q 231 400 205 349 q 179 298 168 245 l 116 0 z"},"2":{"x_min":0,"x_max":551,"ha":551,"o":"m 3 0 l 19 75 l 246 280 q 312 340 354 382 q 396 424 416 462 q 436 500 436 547 q 436 592 408 620 q 381 649 330 649 q 286 649 249 631 q 212 613 177 587 l 135 647 q 176 680 226 702 q 276 724 340 724 q 431 724 480 678 q 528 633 528 561 q 528 503 506 456 q 484 408 434 355 q 384 302 302 230 l 134 84 l 134 80 l 460 80 l 445 0 z"},"{":{"x_min":0,"x_max":350,"ha":350,"o":"m 217 -158 q 146 -158 109 -132 q 72 -105 72 -48 q 72 -32 75 -16 q 78 1 82 20 l 106 125 q 109 141 111 154 q 113 167 113 179 q 113 249 11 249 l 28 322 q 86 322 121 343 q 156 364 166 415 l 199 572 q 216 651 258 682 q 299 714 382 714 l 400 714 l 385 641 q 341 641 316 626 q 290 611 280 564 l 245 408 q 234 357 205 324 q 176 291 118 281 l 118 279 q 157 268 175 241 q 193 214 193 175 q 193 162 190 145 q 188 128 184 112 l 162 10 q 159 -3 157 -14 q 155 -26 155 -36 q 155 -65 176 -75 q 196 -85 230 -85 l 230 -158 z"},"9":{"x_min":0,"x_max":551,"ha":551,"o":"m 165 -10 q 135 -10 104 -6 q 72 -1 47 7 l 47 88 q 74 79 103 72 q 132 66 167 66 q 267 66 326 135 q 386 204 416 343 l 411 343 q 386 308 346 286 q 307 265 259 265 q 176 265 132 314 q 87 362 87 454 q 87 526 117 588 q 147 649 203 686 q 259 724 336 724 q 424 724 473 668 q 522 613 522 504 q 522 452 513 394 q 504 335 487 278 q 470 220 445 170 q 420 120 389 85 q 343 34 286 12 q 230 -10 165 -10 z m 277 336 q 324 336 362 361 q 400 386 421 432 q 435 466 435 516 q 435 575 408 612 q 381 650 331 650 q 281 650 246 624 q 211 598 192 554 q 174 510 174 458 q 174 400 200 368 q 226 336 277 336 z"}," ":{"x_min":0,"x_max":260,"ha":260,"o":""},"I":{"x_min":0,"x_max":324,"ha":324,"o":"m -20 0 l -10 49 l 75 69 l 197 645 l 121 664 l 131 714 l 381 714 l 371 664 l 285 645 l 163 69 l 240 49 l 230 0 z"},"H":{"x_min":0,"x_max":680,"ha":680,"o":"m 42 0 l 193 714 l 282 714 l 218 412 l 532 412 l 596 714 l 684 714 l 533 0 l 445 0 l 515 333 l 201 333 l 131 0 z"},"4":{"x_min":0,"x_max":551,"ha":551,"o":"m 288 0 l 323 162 l 6 162 l 21 242 l 424 714 l 525 714 l 426 240 l 536 240 l 519 162 l 408 162 l 373 0 z m 111 240 l 340 240 l 376 411 q 384 448 394 488 q 405 529 416 565 q 426 601 432 624 l 428 624 q 420 611 407 593 q 394 575 381 558 q 368 541 360 531 z"},"~":{"x_min":0,"x_max":572,"ha":572,"o":"m 289 319 q 253 335 230 340 q 206 346 184 346 q 156 346 125 329 q 94 312 70 287 l 70 365 q 118 418 190 418 q 218 418 247 412 q 276 406 322 386 q 358 370 382 364 q 405 359 426 359 q 455 359 486 376 q 517 393 541 418 l 541 341 q 492 287 421 287 q 392 287 363 294 q 334 300 289 319 z"},"D":{"x_min":0,"x_max":667,"ha":667,"o":"m 41 0 l 192 714 l 361 714 q 490 714 563 644 q 636 574 636 429 q 636 305 588 208 q 539 111 446 56 q 352 0 217 0 z m 146 77 l 222 77 q 326 77 397 124 q 468 171 505 250 q 542 330 542 430 q 542 540 490 588 q 437 637 350 637 l 265 637 z"},"^":{"x_min":0,"x_max":572,"ha":572,"o":"m 38 267 l 250 719 l 300 719 l 534 267 l 456 267 l 276 626 l 116 267 z"},"0":{"x_min":0,"x_max":551,"ha":551,"o":"m 236 -10 q 148 -10 102 53 q 57 116 57 233 q 57 292 67 359 q 77 426 98 490 q 120 555 155 608 q 190 661 240 693 q 289 725 354 725 q 446 725 490 666 q 534 606 534 495 q 534 423 523 351 q 512 279 490 214 q 467 149 432 98 q 397 48 348 19 q 299 -10 236 -10 z m 246 65 q 286 65 318 91 q 349 117 372 162 q 396 206 412 262 q 428 318 436 378 q 444 439 444 497 q 444 571 420 610 q 397 650 349 650 q 311 650 279 624 q 247 599 222 556 q 198 512 181 458 q 164 404 155 346 q 146 287 146 233 q 146 152 170 108 q 194 65 246 65 z"},"F":{"x_min":0,"x_max":477,"ha":477,"o":"m 41 0 l 192 714 l 554 714 l 538 635 l 264 635 l 211 381 l 467 381 l 450 302 l 194 302 l 130 0 z"},"`":{"x_min":0,"x_max":278,"ha":278,"o":"m 256 606 q 237 625 216 652 q 194 679 175 707 q 156 735 146 756 l 146 766 l 240 766 q 251 729 270 690 q 290 652 310 618 l 310 606 z"},"k":{"x_min":0,"x_max":495,"ha":495,"o":"m 27 0 l 188 760 l 277 760 l 212 458 q 195 378 182 334 q 170 291 165 277 l 167 277 l 421 536 l 525 536 l 295 306 l 438 0 l 341 0 l 228 251 l 156 194 l 116 0 z"},"u":{"x_min":0,"x_max":579,"ha":579,"o":"m 189 -10 q 128 -10 92 24 q 55 58 55 123 q 55 146 58 166 q 62 186 66 209 l 136 536 l 225 536 l 153 199 q 144 156 144 132 q 144 100 160 82 q 176 63 214 63 q 248 63 287 87 q 326 111 360 164 q 395 217 414 305 l 463 536 l 550 536 l 436 0 l 364 0 l 375 99 l 370 99 q 351 74 326 49 q 300 24 266 7 q 232 -10 189 -10 z"},"]":{"x_min":0,"x_max":290,"ha":290,"o":"m -72 -158 l -57 -86 l 53 -86 l 207 642 l 97 642 l 113 714 l 306 714 l 120 -158 z"},"U":{"x_min":0,"x_max":677,"ha":677,"o":"m 300 -10 q 188 -10 134 42 q 79 93 79 188 q 79 205 82 230 q 85 254 91 283 l 183 714 l 272 714 l 179 278 q 174 255 171 230 q 168 205 168 189 q 168 133 202 101 q 237 69 305 69 q 394 69 437 115 q 480 161 500 250 l 599 714 l 688 714 l 588 243 q 572 165 538 108 q 503 51 445 20 q 387 -10 300 -10 z"},"o":{"x_min":0,"x_max":563,"ha":563,"o":"m 248 -8 q 155 -8 102 48 q 48 103 48 198 q 48 260 65 321 q 82 382 116 432 q 149 482 200 512 q 250 543 316 543 q 410 543 463 488 q 516 432 516 336 q 516 275 499 214 q 482 153 448 103 q 415 53 365 22 q 315 -8 248 -8 z m 253 65 q 300 65 340 98 q 379 132 402 195 q 426 258 426 346 q 426 376 416 404 q 405 433 381 452 q 357 470 317 470 q 262 470 222 432 q 181 395 159 332 q 137 270 137 195 q 137 133 168 99 q 198 65 253 65 z"},"N":{"x_min":0,"x_max":707,"ha":707,"o":"m 40 0 l 191 714 l 286 714 l 505 124 l 508 124 q 512 160 522 216 q 532 271 543 321 l 627 714 l 712 714 l 561 0 l 466 0 l 245 592 l 242 592 q 240 571 234 537 q 229 503 222 464 q 214 424 206 388 l 124 0 z"},"+":{"x_min":0,"x_max":572,"ha":572,"o":"m 341 388 l 540 388 l 540 317 l 341 317 l 341 111 l 269 111 l 269 317 l 70 317 l 70 388 l 269 388 l 269 595 l 341 595 z"},"G":{"x_min":0,"x_max":678,"ha":678,"o":"m 343 -10 q 216 -10 144 61 q 72 132 72 259 q 72 357 100 442 q 127 526 178 590 q 230 653 300 688 q 371 724 457 724 q 522 724 571 713 q 620 702 664 682 l 630 604 q 592 620 550 632 q 507 645 456 645 q 374 645 308 596 q 243 547 205 462 q 167 376 167 265 q 167 210 186 166 q 206 121 247 95 q 288 69 352 69 q 390 69 422 74 q 453 80 475 87 l 521 298 l 381 298 l 398 376 l 627 376 l 551 27 q 506 11 456 0 q 406 -10 343 -10 z"},"q":{"x_min":0,"x_max":579,"ha":579,"o":"m 298 -240 l 346 -12 q 350 5 357 32 q 364 58 370 78 q 375 99 375 99 l 371 99 q 336 55 293 22 q 250 -10 194 -10 q 129 -10 88 36 q 48 82 48 173 q 48 246 66 313 q 84 380 118 432 q 153 485 202 516 q 251 546 312 546 q 365 546 398 518 q 430 490 446 453 l 451 453 l 484 536 l 550 536 l 385 -240 z m 223 63 q 256 63 290 88 q 324 113 352 156 q 381 198 398 252 q 416 306 416 364 q 416 408 393 440 q 370 472 318 472 q 278 472 245 446 q 212 421 188 378 q 164 335 151 281 q 138 227 138 171 q 138 63 223 63 z"},"d":{"x_min":0,"x_max":579,"ha":579,"o":"m 193 -10 q 128 -10 88 36 q 48 82 48 173 q 48 246 66 313 q 84 380 118 432 q 153 485 202 515 q 250 545 311 545 q 365 545 398 518 q 430 490 446 453 l 451 453 q 456 487 460 518 q 465 549 473 585 l 510 760 l 597 760 l 436 0 l 364 0 l 375 99 l 371 99 q 335 54 292 22 q 249 -10 193 -10 z m 223 63 q 256 63 290 88 q 324 112 353 154 q 382 196 400 250 q 417 304 417 364 q 417 412 394 442 q 370 472 317 472 q 277 472 244 446 q 212 421 188 378 q 164 335 151 281 q 138 227 138 171 q 138 63 223 63 z"},"1":{"x_min":0,"x_max":551,"ha":551,"o":"m 202 0 l 297 442 q 307 488 318 536 q 330 585 339 614 q 324 598 308 586 q 292 574 272 561 l 184 506 l 143 572 l 367 714 l 444 714 l 291 0 z"},"5":{"x_min":0,"x_max":551,"ha":551,"o":"m 200 -10 q 103 -10 37 29 l 37 114 q 73 92 114 78 q 156 64 200 64 q 270 64 313 88 q 356 112 376 152 q 395 191 395 237 q 395 298 359 332 q 323 367 261 367 q 231 367 205 362 q 179 357 147 349 l 110 378 l 207 714 l 536 714 l 519 634 l 266 634 l 206 427 q 224 431 245 434 q 266 437 293 437 q 382 437 434 386 q 487 336 487 248 q 487 203 472 158 q 458 112 426 74 q 393 36 338 13 q 282 -10 200 -10 z"}}}
